<?xml version="1.0" encoding="UTF-8" standalone="no"?>
<!-- Created with Inkscape (http://www.inkscape.org/) -->

<svg
   xmlns:dc="http://purl.org/dc/elements/1.1/"
   xmlns:cc="http://creativecommons.org/ns#"
   xmlns:rdf="http://www.w3.org/1999/02/22-rdf-syntax-ns#"
   xmlns:svg="http://www.w3.org/2000/svg"
   xmlns="http://www.w3.org/2000/svg"
   xmlns:sodipodi="http://sodipodi.sourceforge.net/DTD/sodipodi-0.dtd"
   xmlns:inkscape="http://www.inkscape.org/namespaces/inkscape"
   version="1.1"
   width="286.80542"
   height="63.404312"
   id="svg7325"
   inkscape:version="0.48.5 r10040"
   sodipodi:docname="Jurassic_Park_outline.svg">
  <sodipodi:namedview
     pagecolor="#ffffff"
     bordercolor="#666666"
     borderopacity="1"
     objecttolerance="10"
     gridtolerance="10"
     guidetolerance="10"
     inkscape:pageopacity="0"
     inkscape:pageshadow="2"
     inkscape:window-width="1680"
     inkscape:window-height="994"
     id="namedview3701"
     showgrid="false"
     fit-margin-top="0"
     fit-margin-left="0"
     fit-margin-right="0"
     fit-margin-bottom="0"
     inkscape:zoom="4.0666667"
     inkscape:cx="168.2582"
     inkscape:cy="70.168438"
     inkscape:window-x="1276"
     inkscape:window-y="-4"
     inkscape:window-maximized="1"
     inkscape:current-layer="g6660" />
  <defs
     id="defs7327">
    <clipPath
       id="clipPath1740">
      <path
         d="M 187.087,184.819 268.144,184.819 268.144,246.048 187.087,246.048 187.087,184.819 z"
         id="path1742"
         inkscape:connector-curvature="0" />
    </clipPath>
    <clipPath
       id="clipPath1752">
      <path
         d="M 178.553,246.494 C 178.553,246.494 172.884,246.494 172.884,240.825 L 172.884,189.801 C 172.884,189.801 172.884,184.132 178.553,184.132 L 277.765,184.132 C 277.765,184.132 283.434,184.132 283.434,189.801 L 283.434,240.825 C 283.434,240.825 283.434,246.494 277.765,246.494"
         id="path1754"
         inkscape:connector-curvature="0" />
    </clipPath>
    <clipPath
       id="clipPath1772">
      <path
         d="M 178.553,246.494 C 178.553,246.494 172.884,246.494 172.884,240.825 L 172.884,189.801 C 172.884,189.801 172.884,184.132 178.553,184.132 L 277.765,184.132 C 277.765,184.132 283.434,184.132 283.434,189.801 L 283.434,240.825 C 283.434,240.825 283.434,246.494 277.765,246.494"
         id="path1774"
         inkscape:connector-curvature="0" />
    </clipPath>
    <clipPath
       id="clipPath1824">
      <path
         d="M 178.553,246.494 C 178.553,246.494 172.884,246.494 172.884,240.825 L 172.884,189.801 C 172.884,189.801 172.884,184.132 178.553,184.132 L 277.765,184.132 C 277.765,184.132 283.434,184.132 283.434,189.801 L 283.434,240.825 C 283.434,240.825 283.434,246.494 277.765,246.494"
         id="path1826"
         inkscape:connector-curvature="0" />
    </clipPath>
    <clipPath
       id="clipPath1880">
      <path
         d="M 178.553,246.494 C 178.553,246.494 172.884,246.494 172.884,240.825 L 172.884,189.801 C 172.884,189.801 172.884,184.132 178.553,184.132 L 277.765,184.132 C 277.765,184.132 283.434,184.132 283.434,189.801 L 283.434,240.825 C 283.434,240.825 283.434,246.494 277.765,246.494"
         id="path1882"
         inkscape:connector-curvature="0" />
    </clipPath>
    <clipPath
       id="clipPath1904">
      <path
         d="M 178.553,246.494 C 178.553,246.494 172.884,246.494 172.884,240.825 L 172.884,189.801 C 172.884,189.801 172.884,184.132 178.553,184.132 L 277.765,184.132 C 277.765,184.132 283.434,184.132 283.434,189.801 L 283.434,240.825 C 283.434,240.825 283.434,246.494 277.765,246.494"
         id="path1906"
         inkscape:connector-curvature="0" />
    </clipPath>
    <clipPath
       id="clipPath1984">
      <path
         d="M 178.553,246.494 C 178.553,246.494 172.884,246.494 172.884,240.825 L 172.884,189.801 C 172.884,189.801 172.884,184.132 178.553,184.132 L 277.765,184.132 C 277.765,184.132 283.434,184.132 283.434,189.801 L 283.434,240.825 C 283.434,240.825 283.434,246.494 277.765,246.494"
         id="path1986"
         inkscape:connector-curvature="0" />
    </clipPath>
    <clipPath
       id="clipPath2040">
      <path
         d="M 178.553,246.494 C 178.553,246.494 172.884,246.494 172.884,240.825 L 172.884,189.801 C 172.884,189.801 172.884,184.132 178.553,184.132 L 277.765,184.132 C 277.765,184.132 283.434,184.132 283.434,189.801 L 283.434,240.825 C 283.434,240.825 283.434,246.494 277.765,246.494"
         id="path2042"
         inkscape:connector-curvature="0" />
    </clipPath>
    <clipPath
       id="clipPath2132">
      <path
         d="M 178.553,246.494 C 178.553,246.494 172.884,246.494 172.884,240.825 L 172.884,189.801 C 172.884,189.801 172.884,184.132 178.553,184.132 L 277.765,184.132 C 277.765,184.132 283.434,184.132 283.434,189.801 L 283.434,240.825 C 283.434,240.825 283.434,246.494 277.765,246.494"
         id="path2134"
         inkscape:connector-curvature="0" />
    </clipPath>
    <clipPath
       id="clipPath2148">
      <path
         d="M 187.087,184.819 268.144,184.819 268.144,246.048 187.087,246.048 187.087,184.819 z"
         id="path2150"
         inkscape:connector-curvature="0" />
    </clipPath>
    <clipPath
       id="clipPath2188">
      <path
         d="M 178.553,246.494 C 178.553,246.494 172.884,246.494 172.884,240.825 L 172.884,189.801 C 172.884,189.801 172.884,184.132 178.553,184.132 L 277.765,184.132 C 277.765,184.132 283.434,184.132 283.434,189.801 L 283.434,240.825 C 283.434,240.825 283.434,246.494 277.765,246.494"
         id="path2190"
         inkscape:connector-curvature="0" />
    </clipPath>
    <clipPath
       id="clipPath2200">
      <path
         d="M 187.087,184.819 268.144,184.819 268.144,246.048 187.087,246.048 187.087,184.819 z"
         id="path2202"
         inkscape:connector-curvature="0" />
    </clipPath>
    <clipPath
       id="clipPath2216">
      <path
         d="M 178.553,246.494 C 178.553,246.494 172.884,246.494 172.884,240.825 L 172.884,189.801 C 172.884,189.801 172.884,184.132 178.553,184.132 L 277.765,184.132 C 277.765,184.132 283.434,184.132 283.434,189.801 L 283.434,240.825 C 283.434,240.825 283.434,246.494 277.765,246.494"
         id="path2218"
         inkscape:connector-curvature="0" />
    </clipPath>
    <clipPath
       id="clipPath2228">
      <path
         d="M 187.087,184.819 268.144,184.819 268.144,246.048 187.087,246.048 187.087,184.819 z"
         id="path2230"
         inkscape:connector-curvature="0" />
    </clipPath>
    <clipPath
       id="clipPath2240">
      <path
         d="M 178.553,246.494 C 178.553,246.494 172.884,246.494 172.884,240.825 L 172.884,189.801 C 172.884,189.801 172.884,184.132 178.553,184.132 L 277.765,184.132 C 277.765,184.132 283.434,184.132 283.434,189.801 L 283.434,240.825 C 283.434,240.825 283.434,246.494 277.765,246.494"
         id="path2242"
         inkscape:connector-curvature="0" />
    </clipPath>
    <clipPath
       id="clipPath2260">
      <path
         d="M 178.553,246.494 C 178.553,246.494 172.884,246.494 172.884,240.825 L 172.884,189.801 C 172.884,189.801 172.884,184.132 178.553,184.132 L 277.765,184.132 C 277.765,184.132 283.434,184.132 283.434,189.801 L 283.434,240.825 C 283.434,240.825 283.434,246.494 277.765,246.494"
         id="path2262"
         inkscape:connector-curvature="0" />
    </clipPath>
    <clipPath
       id="clipPath2272">
      <path
         d="M 187.087,184.819 268.144,184.819 268.144,246.048 187.087,246.048 187.087,184.819 z"
         id="path2274"
         inkscape:connector-curvature="0" />
    </clipPath>
    <clipPath
       id="clipPath2288">
      <path
         d="M 178.553,246.494 C 178.553,246.494 172.884,246.494 172.884,240.825 L 172.884,189.801 C 172.884,189.801 172.884,184.132 178.553,184.132 L 277.765,184.132 C 277.765,184.132 283.434,184.132 283.434,189.801 L 283.434,240.825 C 283.434,240.825 283.434,246.494 277.765,246.494"
         id="path2290"
         inkscape:connector-curvature="0" />
    </clipPath>
    <clipPath
       id="clipPath2316">
      <path
         d="M 178.553,246.494 C 178.553,246.494 172.884,246.494 172.884,240.825 L 172.884,189.801 C 172.884,189.801 172.884,184.132 178.553,184.132 L 277.765,184.132 C 277.765,184.132 283.434,184.132 283.434,189.801 L 283.434,240.825 C 283.434,240.825 283.434,246.494 277.765,246.494"
         id="path2318"
         inkscape:connector-curvature="0" />
    </clipPath>
    <clipPath
       id="clipPath2328">
      <path
         d="M 187.087,184.819 268.144,184.819 268.144,246.048 187.087,246.048 187.087,184.819 z"
         id="path2330"
         inkscape:connector-curvature="0" />
    </clipPath>
    <clipPath
       id="clipPath2344">
      <path
         d="M 178.553,246.494 C 178.553,246.494 172.884,246.494 172.884,240.825 L 172.884,189.801 C 172.884,189.801 172.884,184.132 178.553,184.132 L 277.765,184.132 C 277.765,184.132 283.434,184.132 283.434,189.801 L 283.434,240.825 C 283.434,240.825 283.434,246.494 277.765,246.494"
         id="path2346"
         inkscape:connector-curvature="0" />
    </clipPath>
    <clipPath
       id="clipPath2356">
      <path
         d="M 187.087,184.819 268.144,184.819 268.144,246.048 187.087,246.048 187.087,184.819 z"
         id="path2358"
         inkscape:connector-curvature="0" />
    </clipPath>
    <clipPath
       id="clipPath2368">
      <path
         d="M 178.553,246.494 C 178.553,246.494 172.884,246.494 172.884,240.825 L 172.884,189.801 C 172.884,189.801 172.884,184.132 178.553,184.132 L 277.765,184.132 C 277.765,184.132 283.434,184.132 283.434,189.801 L 283.434,240.825 C 283.434,240.825 283.434,246.494 277.765,246.494"
         id="path2370"
         inkscape:connector-curvature="0" />
    </clipPath>
    <clipPath
       id="clipPath2388">
      <path
         d="M 178.553,246.494 C 178.553,246.494 172.884,246.494 172.884,240.825 L 172.884,189.801 C 172.884,189.801 172.884,184.132 178.553,184.132 L 277.765,184.132 C 277.765,184.132 283.434,184.132 283.434,189.801 L 283.434,240.825 C 283.434,240.825 283.434,246.494 277.765,246.494"
         id="path2390"
         inkscape:connector-curvature="0" />
    </clipPath>
    <clipPath
       id="clipPath2400">
      <path
         d="M 187.087,184.819 268.144,184.819 268.144,246.048 187.087,246.048 187.087,184.819 z"
         id="path2402"
         inkscape:connector-curvature="0" />
    </clipPath>
    <clipPath
       id="clipPath2416">
      <path
         d="M 178.553,246.494 C 178.553,246.494 172.884,246.494 172.884,240.825 L 172.884,189.801 C 172.884,189.801 172.884,184.132 178.553,184.132 L 277.765,184.132 C 277.765,184.132 283.434,184.132 283.434,189.801 L 283.434,240.825 C 283.434,240.825 283.434,246.494 277.765,246.494"
         id="path2418"
         inkscape:connector-curvature="0" />
    </clipPath>
  </defs>
  <metadata
     id="metadata7330">
    <rdf:RDF>
      <cc:Work
         rdf:about="">
        <dc:format>image/svg+xml</dc:format>
        <dc:type
           rdf:resource="http://purl.org/dc/dcmitype/StillImage" />
        <dc:title />
      </cc:Work>
    </rdf:RDF>
  </metadata>
  <g
     id="g6660"
     transform="matrix(2.9609159,0,0,2.9609159,-707.3472,-2374.6951)">
    <path
       inkscape:connector-curvature="0"
       style="fill:#231f20;fill-opacity:1;fill-rule:nonzero;stroke:none"
       id="path1764"
       d="M 239.16473,823.15745 335.48848,823.15745 335.48848,802.2837 239.16473,802.2837 239.16473,823.15745 z" />
    <path
       inkscape:connector-curvature="0"
       style="fill:none;stroke:#231f20;stroke-width:0.54000002;stroke-linecap:butt;stroke-linejoin:miter;stroke-miterlimit:4;stroke-opacity:1;stroke-dasharray:none"
       id="path1766"
       d="M 335.48848,802.2837 239.16473,802.2837 239.16473,823.15745 335.48848,823.15745 335.48848,802.2837 z" />
    <g
       id="g1964"
       transform="matrix(1.25,0,0,-1.25,307.07098,806.32745)"
       style="fill:#ffffff">
      <path
         inkscape:connector-curvature="0"
         style="fill:#ffffff;fill-opacity:1;fill-rule:nonzero;stroke:none"
         id="path1966"
         d="M 0,0 C 1.016,-1.644 1.121,-4.201 0.286,-5.949 -0.419,-7.462 -2.011,-8.558 -3.55,-8.923 L -3.679,-9.08 -3.576,-12.133 C -4.567,-12.237 -5.636,-12.237 -6.602,-12.263 -6.315,-7.228 -6.185,-2.74 -6.655,2.296 -4.176,2.896 -1.488,2.244 0,0" />
    </g>
    <g
       id="g1968"
       transform="matrix(1.25,0,0,-1.25,247.93848,804.4037)"
       style="fill:#ffffff">
      <path
         inkscape:connector-curvature="0"
         style="fill:#ffffff;fill-opacity:1;fill-rule:nonzero;stroke:none"
         id="path1970"
         d="M 0,0 C -0.235,-3.94 -0.235,-7.802 -0.365,-11.898 -0.47,-12.551 -0.679,-13.203 -1.253,-13.646 -2.427,-14.533 -4.149,-14.116 -5.532,-13.986 L -5.636,-13.881 C -5.74,-12.968 -5.74,-11.95 -5.766,-11.089 -5.088,-11.22 -4.305,-11.376 -3.653,-11.115 -3.209,-10.698 -3.183,-10.124 -3.183,-9.55 -3.131,-7.228 -3.236,-4.644 -3.444,-2.374 -3.418,-2.244 -3.464,-2.29 -3.516,-2.081 L -3.523,-1.722 -3.575,0.574" />
    </g>
    <g
       id="g1996"
       transform="matrix(1.25,0,0,-1.25,285.41348,807.01245)"
       style="fill:#ffffff">
      <path
         inkscape:connector-curvature="0"
         style="fill:#ffffff;fill-opacity:1;fill-rule:nonzero;stroke:none"
         id="path1998"
         d="M 0,0 C -0.757,-0.47 -1.696,-1.279 -1.852,-2.192 -1.852,-3.523 -0.704,-4.357 -0.209,-5.453 0.183,-7.515 -1.565,-8.924 -2.74,-10.463 -3.548,-10.098 -4.279,-9.55 -4.984,-8.924 -4.175,-8.323 -2.922,-7.671 -2.818,-6.523 -2.609,-5.088 -3.966,-4.201 -4.383,-2.975 -5.114,-1.044 -3.392,0.339 -2.218,1.592 -1.435,1.148 -0.73,0.548 0,0" />
    </g>
    <g
       id="g2000"
       transform="matrix(1.25,0,0,-1.25,327.91223,805.1537)"
       style="fill:#ffffff">
      <path
         inkscape:connector-curvature="0"
         style="fill:#ffffff;fill-opacity:1;fill-rule:nonzero;stroke:none"
         id="path2002"
         d="M 0,0 C 0.104,-1.2 -0.052,-2.635 0.13,-3.757 1.017,-2.661 1.383,-1.253 1.826,0.078 2.609,-0.209 3.418,-0.626 4.174,-1.07 L 1.852,-5.14 1.93,-5.532 C 2.792,-7.228 3.731,-8.871 4.644,-10.541 L 2.609,-11.715 2.4,-11.454 C 1.774,-10.072 1.226,-8.637 0.443,-7.332 0.235,-7.332 0.13,-7.567 0.104,-7.723 L 0.156,-11.559 C -0.627,-11.663 -1.435,-11.585 -2.218,-11.559 -2.088,-7.828 -2.166,-3.627 -2.401,0.104" />
    </g>
    <g
       id="g2004"
       transform="matrix(1.25,0,0,-1.25,279.86973,806.94745)"
       style="fill:#ffffff">
      <path
         inkscape:connector-curvature="0"
         style="fill:#ffffff;fill-opacity:1;fill-rule:nonzero;stroke:none"
         id="path2006"
         d="M 0,0 C -0.783,-0.6 -1.748,-1.409 -1.748,-2.479 -1.539,-4.175 0.913,-5.192 -0.13,-7.149 -0.652,-8.35 -1.513,-9.445 -2.374,-10.515 -2.975,-10.463 -3.392,-9.915 -3.914,-9.706 -3.992,-9.967 -3.94,-10.333 -3.862,-10.62 -4.67,-10.724 -5.375,-10.698 -6.262,-10.646 L -6.523,-8.036 C -7.227,-7.749 -8.115,-7.828 -8.897,-7.854 L -9.054,-8.114 -9.393,-10.437 -11.663,-10.463 -11.715,-10.228 C -12.159,-10.254 -12.55,-10.515 -12.994,-10.593 -13.594,-9.602 -13.933,-8.428 -14.533,-7.41 -14.69,-7.488 -14.925,-7.488 -14.977,-7.697 L -14.977,-10.489 -17.143,-10.515 -17.09,1.148 -13.62,1.122 C -12.316,0.391 -11.063,-1.07 -10.959,-2.661 -10.907,-3.835 -11.689,-4.827 -12.472,-5.61 -12.342,-6.68 -12.055,-7.775 -11.507,-8.715 L -11.298,-8.454 C -10.515,-5.297 -9.837,-2.113 -9.367,1.2 L -9.211,1.279 -5.923,1.253 C -5.453,-2.035 -4.905,-5.297 -4.201,-8.48 L -4.096,-8.584 C -3.288,-8.114 -2.609,-7.332 -2.583,-6.392 -2.661,-5.036 -3.836,-4.122 -4.331,-2.948 -4.905,-1.122 -3.392,0.235 -2.218,1.513 -1.435,1.096 -0.731,0.522 0,0" />
    </g>
    <g
       id="g2008"
       transform="matrix(1.25,0,0,-1.25,321.81223,805.41495)"
       style="fill:#ffffff">
      <path
         inkscape:connector-curvature="0"
         style="fill:#ffffff;fill-opacity:1;fill-rule:nonzero;stroke:none"
         id="path2010"
         d="M 0,0 C 1.226,-1.122 2.635,-2.453 2.218,-4.305 2.009,-5.192 1.461,-5.949 0.731,-6.575 1.044,-8.167 1.67,-9.576 2.218,-11.063 L 0.392,-11.663 C -0.235,-10.593 -0.678,-9.393 -1.278,-8.323 -1.591,-8.349 -1.827,-8.61 -1.722,-8.95 L -1.644,-11.402 C -2.296,-11.533 -3.053,-11.428 -3.731,-11.506 L -3.783,-11.585 C -4.671,-11.611 -5.557,-11.663 -6.419,-11.611 L -6.602,-9.028 -6.94,-8.871 -9.002,-8.871 -9.132,-9.002 -9.471,-11.506 -11.767,-11.559 -11.82,-11.454 C -11.063,-7.619 -10.15,-3.835 -9.628,0.13 -8.558,0.157 -7.228,0.209 -6.08,0.157 -5.61,-3.157 -5.061,-6.523 -4.123,-9.68 L -4.044,-9.523 C -3.966,-6.236 -3.914,-3.105 -3.966,0.157 -2.844,0.261 -1.644,0.209 -0.496,0.183" />
    </g>
    <g
       id="g2012"
       transform="matrix(1.25,0,0,-1.25,295.58973,807.3387)"
       style="fill:#ffffff">
      <path
         inkscape:connector-curvature="0"
         style="fill:#ffffff;fill-opacity:1;fill-rule:nonzero;stroke:none"
         id="path2014"
         d="M 0,0 C -1.722,-0.705 -2.896,-2.479 -2.844,-4.383 -2.791,-5.714 -2.192,-6.836 -1.226,-7.723 -0.757,-8.062 -0.235,-8.324 0.287,-8.506 -0.287,-9.184 -1.018,-9.68 -1.696,-10.202 -4.123,-9.184 -5.114,-6.575 -5.062,-4.096 -4.984,-1.774 -3.862,0.339 -1.8,1.696 -1.122,1.331 -0.548,0.6 0,0" />
    </g>
    <g
       id="g2016"
       transform="matrix(1.25,0,0,-1.25,288.70723,805.57745)"
       style="fill:#ffffff">
      <path
         inkscape:connector-curvature="0"
         style="fill:#ffffff;fill-opacity:1;fill-rule:nonzero;stroke:none"
         id="path2018"
         d="M 0,0 C -0.365,-3.601 -0.235,-7.671 0,-11.376 -0.809,-11.507 -1.696,-11.481 -2.505,-11.481 -2.192,-7.775 -2.113,-3.522 -2.557,0.157 -1.826,0.287 -0.913,0.157 -0.052,0.157" />
    </g>
    <g
       id="g2020"
       transform="matrix(1.25,0,0,-1.25,251.88598,805.57745)"
       style="fill:#ffffff">
      <path
         inkscape:connector-curvature="0"
         style="fill:#ffffff;fill-opacity:1;fill-rule:nonzero;stroke:none"
         id="path2022"
         d="M 0,0 C 0.26,-2.74 0.051,-5.792 -0.026,-8.506 0.521,-8.897 1.278,-8.924 1.956,-8.897 L 2.086,-8.715 C 2.347,-5.844 2.138,-2.766 2.165,0.026 2.922,0.13 3.834,0.104 4.67,0.052 4.383,-3.653 4.252,-7.436 4.409,-11.324 L 4.357,-11.428 2.217,-11.768 C 2.165,-11.585 2.217,-11.272 2.06,-11.089 1.512,-11.219 1.122,-11.872 0.521,-11.689 -0.339,-11.298 -1.227,-10.906 -1.983,-10.202 L -2.192,-9.706 C -2.218,-6.575 -2.087,-3.053 -2.531,0.052 L -2.479,0.104 -0.104,0.104" />
    </g>
    <g
       id="g2052"
       transform="matrix(1.25,0,0,-1.25,304.78723,808.8387)">
      <path
         inkscape:connector-curvature="0"
         style="fill:#231f20;fill-opacity:1;fill-rule:nonzero;stroke:none"
         id="path2054"
         d="M 0,0 C 0.392,-1.409 0.131,-3.001 -1.095,-3.914 -1.304,-4.07 -1.513,-4.227 -1.774,-4.253 -1.931,-2.27 -1.931,-0.026 -1.774,1.983 -0.914,1.696 -0.235,0.835 0,0" />
    </g>
    <g
       id="g2092"
       transform="matrix(1.25,0,0,-1.25,321.45348,809.5562)">
      <path
         inkscape:connector-curvature="0"
         style="fill:#231f20;fill-opacity:1;fill-rule:nonzero;stroke:none"
         id="path2094"
         d="M 0,0 C 0.104,-1.044 -0.522,-2.087 -1.435,-2.505 -1.67,-2.505 -1.487,-2.192 -1.592,-2.087 -1.565,-0.965 -1.644,0.365 -1.514,1.513 -0.783,1.357 -0.209,0.678 0,0" />
    </g>
    <g
       id="g2096"
       transform="matrix(1.25,0,0,-1.25,262.51723,808.9362)">
      <path
         inkscape:connector-curvature="0"
         style="fill:#231f20;fill-opacity:1;fill-rule:nonzero;stroke:none"
         id="path2098"
         d="M 0,0 C 0.313,-0.444 0.548,-0.939 0.417,-1.514 0.156,-2.218 -0.365,-3.027 -1.122,-3.262 -1.304,-2.035 -1.174,-0.6 -1.226,0.704 -1.148,0.887 -1.017,0.757 -0.913,0.757 L -0.861,0.861 C -0.704,0.574 -0.235,0.339 0,0" />
    </g>
    <g
       id="g2100"
       transform="matrix(1.25,0,0,-1.25,313.10348,813.7312)">
      <path
         inkscape:connector-curvature="0"
         style="fill:#231f20;fill-opacity:1;fill-rule:nonzero;stroke:none"
         id="path2102"
         d="M 0,0 C -0.548,-0.104 -1.147,-0.052 -1.696,-0.026 -1.513,1.331 -1.383,2.792 -0.861,4.044 -0.339,2.792 -0.13,1.383 0,0" />
    </g>
    <g
       id="g2104"
       transform="matrix(1.25,0,0,-1.25,271.16098,812.2312)">
      <path
         inkscape:connector-curvature="0"
         style="fill:#231f20;fill-opacity:1;fill-rule:nonzero;stroke:none"
         id="path2106"
         d="M 0,0 C 0.052,-0.47 0.183,-0.913 0.13,-1.383 -0.391,-1.487 -1.017,-1.461 -1.565,-1.409 -1.409,-0.052 -1.148,1.331 -0.678,2.609 -0.287,1.826 -0.183,0.887 0,0" />
    </g>
  </g>
</svg>
