<?xml version="1.0" encoding="UTF-8" standalone="no"?>
<!-- Created with Inkscape (http://www.inkscape.org/) -->

<svg
   xmlns:dc="http://purl.org/dc/elements/1.1/"
   xmlns:cc="http://creativecommons.org/ns#"
   xmlns:rdf="http://www.w3.org/1999/02/22-rdf-syntax-ns#"
   xmlns:svg="http://www.w3.org/2000/svg"
   xmlns="http://www.w3.org/2000/svg"
   xmlns:sodipodi="http://sodipodi.sourceforge.net/DTD/sodipodi-0.dtd"
   xmlns:inkscape="http://www.inkscape.org/namespaces/inkscape"
   version="1.1"
   width="286.80542"
   height="63.404312"
   id="svg7325"
   inkscape:version="0.48.5 r10040"
   sodipodi:docname="Jurassic_Park_The_Ride_logo.svg">
  <sodipodi:namedview
     pagecolor="#ffffff"
     bordercolor="#666666"
     borderopacity="1"
     objecttolerance="10"
     gridtolerance="10"
     guidetolerance="10"
     inkscape:pageopacity="0"
     inkscape:pageshadow="2"
     inkscape:window-width="1680"
     inkscape:window-height="994"
     id="namedview3701"
     showgrid="false"
     fit-margin-top="0"
     fit-margin-left="0"
     fit-margin-right="0"
     fit-margin-bottom="0"
     inkscape:zoom="4.0666667"
     inkscape:cx="170.33551"
     inkscape:cy="67.502561"
     inkscape:window-x="1276"
     inkscape:window-y="-4"
     inkscape:window-maximized="1"
     inkscape:current-layer="g6660" />
  <defs
     id="defs7327">
    <clipPath
       id="clipPath1740">
      <path
         d="M 187.087,184.819 268.144,184.819 268.144,246.048 187.087,246.048 187.087,184.819 z"
         id="path1742"
         inkscape:connector-curvature="0" />
    </clipPath>
    <clipPath
       id="clipPath1752">
      <path
         d="M 178.553,246.494 C 178.553,246.494 172.884,246.494 172.884,240.825 L 172.884,189.801 C 172.884,189.801 172.884,184.132 178.553,184.132 L 277.765,184.132 C 277.765,184.132 283.434,184.132 283.434,189.801 L 283.434,240.825 C 283.434,240.825 283.434,246.494 277.765,246.494"
         id="path1754"
         inkscape:connector-curvature="0" />
    </clipPath>
    <clipPath
       id="clipPath1772">
      <path
         d="M 178.553,246.494 C 178.553,246.494 172.884,246.494 172.884,240.825 L 172.884,189.801 C 172.884,189.801 172.884,184.132 178.553,184.132 L 277.765,184.132 C 277.765,184.132 283.434,184.132 283.434,189.801 L 283.434,240.825 C 283.434,240.825 283.434,246.494 277.765,246.494"
         id="path1774"
         inkscape:connector-curvature="0" />
    </clipPath>
    <clipPath
       id="clipPath1824">
      <path
         d="M 178.553,246.494 C 178.553,246.494 172.884,246.494 172.884,240.825 L 172.884,189.801 C 172.884,189.801 172.884,184.132 178.553,184.132 L 277.765,184.132 C 277.765,184.132 283.434,184.132 283.434,189.801 L 283.434,240.825 C 283.434,240.825 283.434,246.494 277.765,246.494"
         id="path1826"
         inkscape:connector-curvature="0" />
    </clipPath>
    <clipPath
       id="clipPath1880">
      <path
         d="M 178.553,246.494 C 178.553,246.494 172.884,246.494 172.884,240.825 L 172.884,189.801 C 172.884,189.801 172.884,184.132 178.553,184.132 L 277.765,184.132 C 277.765,184.132 283.434,184.132 283.434,189.801 L 283.434,240.825 C 283.434,240.825 283.434,246.494 277.765,246.494"
         id="path1882"
         inkscape:connector-curvature="0" />
    </clipPath>
    <clipPath
       id="clipPath1904">
      <path
         d="M 178.553,246.494 C 178.553,246.494 172.884,246.494 172.884,240.825 L 172.884,189.801 C 172.884,189.801 172.884,184.132 178.553,184.132 L 277.765,184.132 C 277.765,184.132 283.434,184.132 283.434,189.801 L 283.434,240.825 C 283.434,240.825 283.434,246.494 277.765,246.494"
         id="path1906"
         inkscape:connector-curvature="0" />
    </clipPath>
    <clipPath
       id="clipPath1984">
      <path
         d="M 178.553,246.494 C 178.553,246.494 172.884,246.494 172.884,240.825 L 172.884,189.801 C 172.884,189.801 172.884,184.132 178.553,184.132 L 277.765,184.132 C 277.765,184.132 283.434,184.132 283.434,189.801 L 283.434,240.825 C 283.434,240.825 283.434,246.494 277.765,246.494"
         id="path1986"
         inkscape:connector-curvature="0" />
    </clipPath>
    <clipPath
       id="clipPath2040">
      <path
         d="M 178.553,246.494 C 178.553,246.494 172.884,246.494 172.884,240.825 L 172.884,189.801 C 172.884,189.801 172.884,184.132 178.553,184.132 L 277.765,184.132 C 277.765,184.132 283.434,184.132 283.434,189.801 L 283.434,240.825 C 283.434,240.825 283.434,246.494 277.765,246.494"
         id="path2042"
         inkscape:connector-curvature="0" />
    </clipPath>
    <clipPath
       id="clipPath2132">
      <path
         d="M 178.553,246.494 C 178.553,246.494 172.884,246.494 172.884,240.825 L 172.884,189.801 C 172.884,189.801 172.884,184.132 178.553,184.132 L 277.765,184.132 C 277.765,184.132 283.434,184.132 283.434,189.801 L 283.434,240.825 C 283.434,240.825 283.434,246.494 277.765,246.494"
         id="path2134"
         inkscape:connector-curvature="0" />
    </clipPath>
    <clipPath
       id="clipPath2148">
      <path
         d="M 187.087,184.819 268.144,184.819 268.144,246.048 187.087,246.048 187.087,184.819 z"
         id="path2150"
         inkscape:connector-curvature="0" />
    </clipPath>
    <clipPath
       id="clipPath2188">
      <path
         d="M 178.553,246.494 C 178.553,246.494 172.884,246.494 172.884,240.825 L 172.884,189.801 C 172.884,189.801 172.884,184.132 178.553,184.132 L 277.765,184.132 C 277.765,184.132 283.434,184.132 283.434,189.801 L 283.434,240.825 C 283.434,240.825 283.434,246.494 277.765,246.494"
         id="path2190"
         inkscape:connector-curvature="0" />
    </clipPath>
    <clipPath
       id="clipPath2200">
      <path
         d="M 187.087,184.819 268.144,184.819 268.144,246.048 187.087,246.048 187.087,184.819 z"
         id="path2202"
         inkscape:connector-curvature="0" />
    </clipPath>
    <clipPath
       id="clipPath2216">
      <path
         d="M 178.553,246.494 C 178.553,246.494 172.884,246.494 172.884,240.825 L 172.884,189.801 C 172.884,189.801 172.884,184.132 178.553,184.132 L 277.765,184.132 C 277.765,184.132 283.434,184.132 283.434,189.801 L 283.434,240.825 C 283.434,240.825 283.434,246.494 277.765,246.494"
         id="path2218"
         inkscape:connector-curvature="0" />
    </clipPath>
    <clipPath
       id="clipPath2228">
      <path
         d="M 187.087,184.819 268.144,184.819 268.144,246.048 187.087,246.048 187.087,184.819 z"
         id="path2230"
         inkscape:connector-curvature="0" />
    </clipPath>
    <clipPath
       id="clipPath2240">
      <path
         d="M 178.553,246.494 C 178.553,246.494 172.884,246.494 172.884,240.825 L 172.884,189.801 C 172.884,189.801 172.884,184.132 178.553,184.132 L 277.765,184.132 C 277.765,184.132 283.434,184.132 283.434,189.801 L 283.434,240.825 C 283.434,240.825 283.434,246.494 277.765,246.494"
         id="path2242"
         inkscape:connector-curvature="0" />
    </clipPath>
    <clipPath
       id="clipPath2260">
      <path
         d="M 178.553,246.494 C 178.553,246.494 172.884,246.494 172.884,240.825 L 172.884,189.801 C 172.884,189.801 172.884,184.132 178.553,184.132 L 277.765,184.132 C 277.765,184.132 283.434,184.132 283.434,189.801 L 283.434,240.825 C 283.434,240.825 283.434,246.494 277.765,246.494"
         id="path2262"
         inkscape:connector-curvature="0" />
    </clipPath>
    <clipPath
       id="clipPath2272">
      <path
         d="M 187.087,184.819 268.144,184.819 268.144,246.048 187.087,246.048 187.087,184.819 z"
         id="path2274"
         inkscape:connector-curvature="0" />
    </clipPath>
    <clipPath
       id="clipPath2288">
      <path
         d="M 178.553,246.494 C 178.553,246.494 172.884,246.494 172.884,240.825 L 172.884,189.801 C 172.884,189.801 172.884,184.132 178.553,184.132 L 277.765,184.132 C 277.765,184.132 283.434,184.132 283.434,189.801 L 283.434,240.825 C 283.434,240.825 283.434,246.494 277.765,246.494"
         id="path2290"
         inkscape:connector-curvature="0" />
    </clipPath>
    <clipPath
       id="clipPath2316">
      <path
         d="M 178.553,246.494 C 178.553,246.494 172.884,246.494 172.884,240.825 L 172.884,189.801 C 172.884,189.801 172.884,184.132 178.553,184.132 L 277.765,184.132 C 277.765,184.132 283.434,184.132 283.434,189.801 L 283.434,240.825 C 283.434,240.825 283.434,246.494 277.765,246.494"
         id="path2318"
         inkscape:connector-curvature="0" />
    </clipPath>
    <clipPath
       id="clipPath2328">
      <path
         d="M 187.087,184.819 268.144,184.819 268.144,246.048 187.087,246.048 187.087,184.819 z"
         id="path2330"
         inkscape:connector-curvature="0" />
    </clipPath>
    <clipPath
       id="clipPath2344">
      <path
         d="M 178.553,246.494 C 178.553,246.494 172.884,246.494 172.884,240.825 L 172.884,189.801 C 172.884,189.801 172.884,184.132 178.553,184.132 L 277.765,184.132 C 277.765,184.132 283.434,184.132 283.434,189.801 L 283.434,240.825 C 283.434,240.825 283.434,246.494 277.765,246.494"
         id="path2346"
         inkscape:connector-curvature="0" />
    </clipPath>
    <clipPath
       id="clipPath2356">
      <path
         d="M 187.087,184.819 268.144,184.819 268.144,246.048 187.087,246.048 187.087,184.819 z"
         id="path2358"
         inkscape:connector-curvature="0" />
    </clipPath>
    <clipPath
       id="clipPath2368">
      <path
         d="M 178.553,246.494 C 178.553,246.494 172.884,246.494 172.884,240.825 L 172.884,189.801 C 172.884,189.801 172.884,184.132 178.553,184.132 L 277.765,184.132 C 277.765,184.132 283.434,184.132 283.434,189.801 L 283.434,240.825 C 283.434,240.825 283.434,246.494 277.765,246.494"
         id="path2370"
         inkscape:connector-curvature="0" />
    </clipPath>
    <clipPath
       id="clipPath2388">
      <path
         d="M 178.553,246.494 C 178.553,246.494 172.884,246.494 172.884,240.825 L 172.884,189.801 C 172.884,189.801 172.884,184.132 178.553,184.132 L 277.765,184.132 C 277.765,184.132 283.434,184.132 283.434,189.801 L 283.434,240.825 C 283.434,240.825 283.434,246.494 277.765,246.494"
         id="path2390"
         inkscape:connector-curvature="0" />
    </clipPath>
    <clipPath
       id="clipPath2400">
      <path
         d="M 187.087,184.819 268.144,184.819 268.144,246.048 187.087,246.048 187.087,184.819 z"
         id="path2402"
         inkscape:connector-curvature="0" />
    </clipPath>
    <clipPath
       id="clipPath2416">
      <path
         d="M 178.553,246.494 C 178.553,246.494 172.884,246.494 172.884,240.825 L 172.884,189.801 C 172.884,189.801 172.884,184.132 178.553,184.132 L 277.765,184.132 C 277.765,184.132 283.434,184.132 283.434,189.801 L 283.434,240.825 C 283.434,240.825 283.434,246.494 277.765,246.494"
         id="path2418"
         inkscape:connector-curvature="0" />
    </clipPath>
  </defs>
  <metadata
     id="metadata7330">
    <rdf:RDF>
      <cc:Work
         rdf:about="">
        <dc:format>image/svg+xml</dc:format>
        <dc:type
           rdf:resource="http://purl.org/dc/dcmitype/StillImage" />
        <dc:title></dc:title>
      </cc:Work>
    </rdf:RDF>
  </metadata>
  <g
     id="g6660"
     transform="matrix(2.9609159,0,0,2.9609159,-707.3472,-2374.6951)">
    <path
       inkscape:connector-curvature="0"
       style="fill:#231f20;fill-opacity:1;fill-rule:nonzero;stroke:none"
       id="path1764"
       d="M 239.16473,823.15745 335.48848,823.15745 335.48848,802.2837 239.16473,802.2837 239.16473,823.15745 z" />
    <path
       inkscape:connector-curvature="0"
       style="fill:none;stroke:#231f20;stroke-width:0.54000002;stroke-linecap:butt;stroke-linejoin:miter;stroke-miterlimit:4;stroke-opacity:1;stroke-dasharray:none"
       id="path1766"
       d="M 335.48848,802.2837 239.16473,802.2837 239.16473,823.15745 335.48848,823.15745 335.48848,802.2837 z" />
    <g
       id="g1964"
       transform="matrix(1.25,0,0,-1.25,307.07098,806.32745)"
       style="fill:#ffffff">
      <path
         inkscape:connector-curvature="0"
         style="fill:#ffffff;fill-opacity:1;fill-rule:nonzero;stroke:none"
         id="path1966"
         d="M 0,0 C 1.016,-1.644 1.121,-4.201 0.286,-5.949 -0.419,-7.462 -2.011,-8.558 -3.55,-8.923 L -3.679,-9.08 -3.576,-12.133 C -4.567,-12.237 -5.636,-12.237 -6.602,-12.263 -6.315,-7.228 -6.185,-2.74 -6.655,2.296 -4.176,2.896 -1.488,2.244 0,0" />
    </g>
    <g
       id="g1968"
       transform="matrix(1.25,0,0,-1.25,247.93848,804.4037)"
       style="fill:#ffffff">
      <path
         inkscape:connector-curvature="0"
         style="fill:#ffffff;fill-opacity:1;fill-rule:nonzero;stroke:none"
         id="path1970"
         d="M 0,0 C -0.235,-3.94 -0.235,-7.802 -0.365,-11.898 -0.47,-12.551 -0.679,-13.203 -1.253,-13.646 -2.427,-14.533 -4.149,-14.116 -5.532,-13.986 L -5.636,-13.881 C -5.74,-12.968 -5.74,-11.95 -5.766,-11.089 -5.088,-11.22 -4.305,-11.376 -3.653,-11.115 -3.209,-10.698 -3.183,-10.124 -3.183,-9.55 -3.131,-7.228 -3.236,-4.644 -3.444,-2.374 -3.418,-2.244 -3.464,-2.29 -3.516,-2.081 L -3.523,-1.722 -3.575,0.574" />
    </g>
    <g
       id="g1972"
       transform="matrix(1.25,0,0,-1.25,305.89598,806.8162)">
      <path
         inkscape:connector-curvature="0"
         style="fill:#ed1b2d;fill-opacity:1;fill-rule:nonzero;stroke:none"
         id="path1974"
         d="M 0,0 C 0.809,-1.566 0.913,-3.862 0.027,-5.401 -0.782,-6.862 -2.244,-7.593 -3.835,-7.645 -3.914,-8.715 -3.914,-9.941 -3.94,-10.907 -4.044,-11.011 -4.253,-10.985 -4.357,-10.933 L -4.2,-1.931 -4.357,1.905 C -3.887,2.139 -3.209,1.957 -2.661,1.931 -1.566,1.722 -0.626,0.939 0,0" />
    </g>
    <g
       id="g1976"
       transform="matrix(1.25,0,0,-1.25,305.37473,807.20745)"
       style="fill:#ffffff">
      <path
         inkscape:connector-curvature="0"
         style="fill:#ffffff;fill-opacity:1;fill-rule:nonzero;stroke:none"
         id="path1978"
         d="M 0,0 C 0.757,-1.488 0.783,-3.705 -0.078,-5.14 -0.835,-6.288 -2.009,-6.966 -3.34,-6.966 -3.418,-4.07 -3.444,-1.044 -3.444,1.931 -3.105,2.061 -2.714,1.957 -2.374,1.904 -1.435,1.618 -0.443,0.938 0,0" />
    </g>
    <g
       id="g1980"
       transform="matrix(1.25,0,0,-1.25,2.9159763,1068.6737)">
      <g
         id="g1982"
         clip-path="url(#clipPath1984)">
        <g
           id="g1988"
           transform="translate(194.374,210.921)">
          <path
             inkscape:connector-curvature="0"
             style="fill:#ed1b2d;fill-opacity:1;fill-rule:nonzero;stroke:none"
             id="path1990"
             d="M 0,0 0.104,-0.497 0.13,-10.307 C 0.078,-11.063 -0.365,-11.82 -1.096,-12.081 -1.67,-12.237 -2.192,-12.343 -2.844,-12.237 -2.949,-12.159 -2.975,-12.003 -2.896,-11.898 -2.009,-11.82 -0.887,-11.976 -0.444,-10.985 -0.157,-10.177 -0.183,-9.237 -0.183,-8.297 L -0.444,0 C -0.339,0.104 -0.157,0.078 0,0" />
        </g>
        <g
           id="g1992"
           transform="translate(194.374,210.921)">
          <path
             inkscape:connector-curvature="0"
             style="fill:none;stroke:#ed1b2d;stroke-width:0.11;stroke-linecap:butt;stroke-linejoin:miter;stroke-miterlimit:4;stroke-opacity:1;stroke-dasharray:none"
             id="path1994"
             d="M 0,0 0.104,-0.497 0.13,-10.307 C 0.078,-11.063 -0.365,-11.82 -1.096,-12.081 -1.67,-12.237 -2.192,-12.343 -2.844,-12.237 -2.949,-12.159 -2.975,-12.003 -2.896,-11.898 -2.009,-11.82 -0.887,-11.976 -0.444,-10.985 -0.157,-10.177 -0.183,-9.237 -0.183,-8.297 L -0.444,0 C -0.339,0.104 -0.157,0.078 0,0 z" />
        </g>
      </g>
    </g>
    <g
       id="g1996"
       transform="matrix(1.25,0,0,-1.25,285.41348,807.01245)"
       style="fill:#ffffff">
      <path
         inkscape:connector-curvature="0"
         style="fill:#ffffff;fill-opacity:1;fill-rule:nonzero;stroke:none"
         id="path1998"
         d="M 0,0 C -0.757,-0.47 -1.696,-1.279 -1.852,-2.192 -1.852,-3.523 -0.704,-4.357 -0.209,-5.453 0.183,-7.515 -1.565,-8.924 -2.74,-10.463 -3.548,-10.098 -4.279,-9.55 -4.984,-8.924 -4.175,-8.323 -2.922,-7.671 -2.818,-6.523 -2.609,-5.088 -3.966,-4.201 -4.383,-2.975 -5.114,-1.044 -3.392,0.339 -2.218,1.592 -1.435,1.148 -0.73,0.548 0,0" />
    </g>
    <g
       id="g2000"
       transform="matrix(1.25,0,0,-1.25,327.91223,805.1537)"
       style="fill:#ffffff">
      <path
         inkscape:connector-curvature="0"
         style="fill:#ffffff;fill-opacity:1;fill-rule:nonzero;stroke:none"
         id="path2002"
         d="M 0,0 C 0.104,-1.2 -0.052,-2.635 0.13,-3.757 1.017,-2.661 1.383,-1.253 1.826,0.078 2.609,-0.209 3.418,-0.626 4.174,-1.07 L 1.852,-5.14 1.93,-5.532 C 2.792,-7.228 3.731,-8.871 4.644,-10.541 L 2.609,-11.715 2.4,-11.454 C 1.774,-10.072 1.226,-8.637 0.443,-7.332 0.235,-7.332 0.13,-7.567 0.104,-7.723 L 0.156,-11.559 C -0.627,-11.663 -1.435,-11.585 -2.218,-11.559 -2.088,-7.828 -2.166,-3.627 -2.401,0.104" />
    </g>
    <g
       id="g2004"
       transform="matrix(1.25,0,0,-1.25,279.86973,806.94745)"
       style="fill:#ffffff">
      <path
         inkscape:connector-curvature="0"
         style="fill:#ffffff;fill-opacity:1;fill-rule:nonzero;stroke:none"
         id="path2006"
         d="M 0,0 C -0.783,-0.6 -1.748,-1.409 -1.748,-2.479 -1.539,-4.175 0.913,-5.192 -0.13,-7.149 -0.652,-8.35 -1.513,-9.445 -2.374,-10.515 -2.975,-10.463 -3.392,-9.915 -3.914,-9.706 -3.992,-9.967 -3.94,-10.333 -3.862,-10.62 -4.67,-10.724 -5.375,-10.698 -6.262,-10.646 L -6.523,-8.036 C -7.227,-7.749 -8.115,-7.828 -8.897,-7.854 L -9.054,-8.114 -9.393,-10.437 -11.663,-10.463 -11.715,-10.228 C -12.159,-10.254 -12.55,-10.515 -12.994,-10.593 -13.594,-9.602 -13.933,-8.428 -14.533,-7.41 -14.69,-7.488 -14.925,-7.488 -14.977,-7.697 L -14.977,-10.489 -17.143,-10.515 -17.09,1.148 -13.62,1.122 C -12.316,0.391 -11.063,-1.07 -10.959,-2.661 -10.907,-3.835 -11.689,-4.827 -12.472,-5.61 -12.342,-6.68 -12.055,-7.775 -11.507,-8.715 L -11.298,-8.454 C -10.515,-5.297 -9.837,-2.113 -9.367,1.2 L -9.211,1.279 -5.923,1.253 C -5.453,-2.035 -4.905,-5.297 -4.201,-8.48 L -4.096,-8.584 C -3.288,-8.114 -2.609,-7.332 -2.583,-6.392 -2.661,-5.036 -3.836,-4.122 -4.331,-2.948 -4.905,-1.122 -3.392,0.235 -2.218,1.513 -1.435,1.096 -0.731,0.522 0,0" />
    </g>
    <g
       id="g2008"
       transform="matrix(1.25,0,0,-1.25,321.81223,805.41495)"
       style="fill:#ffffff">
      <path
         inkscape:connector-curvature="0"
         style="fill:#ffffff;fill-opacity:1;fill-rule:nonzero;stroke:none"
         id="path2010"
         d="M 0,0 C 1.226,-1.122 2.635,-2.453 2.218,-4.305 2.009,-5.192 1.461,-5.949 0.731,-6.575 1.044,-8.167 1.67,-9.576 2.218,-11.063 L 0.392,-11.663 C -0.235,-10.593 -0.678,-9.393 -1.278,-8.323 -1.591,-8.349 -1.827,-8.61 -1.722,-8.95 L -1.644,-11.402 C -2.296,-11.533 -3.053,-11.428 -3.731,-11.506 L -3.783,-11.585 C -4.671,-11.611 -5.557,-11.663 -6.419,-11.611 L -6.602,-9.028 -6.94,-8.871 -9.002,-8.871 -9.132,-9.002 -9.471,-11.506 -11.767,-11.559 -11.82,-11.454 C -11.063,-7.619 -10.15,-3.835 -9.628,0.13 -8.558,0.157 -7.228,0.209 -6.08,0.157 -5.61,-3.157 -5.061,-6.523 -4.123,-9.68 L -4.044,-9.523 C -3.966,-6.236 -3.914,-3.105 -3.966,0.157 -2.844,0.261 -1.644,0.209 -0.496,0.183" />
    </g>
    <g
       id="g2012"
       transform="matrix(1.25,0,0,-1.25,295.58973,807.3387)"
       style="fill:#ffffff">
      <path
         inkscape:connector-curvature="0"
         style="fill:#ffffff;fill-opacity:1;fill-rule:nonzero;stroke:none"
         id="path2014"
         d="M 0,0 C -1.722,-0.705 -2.896,-2.479 -2.844,-4.383 -2.791,-5.714 -2.192,-6.836 -1.226,-7.723 -0.757,-8.062 -0.235,-8.324 0.287,-8.506 -0.287,-9.184 -1.018,-9.68 -1.696,-10.202 -4.123,-9.184 -5.114,-6.575 -5.062,-4.096 -4.984,-1.774 -3.862,0.339 -1.8,1.696 -1.122,1.331 -0.548,0.6 0,0" />
    </g>
    <g
       id="g2016"
       transform="matrix(1.25,0,0,-1.25,288.70723,805.57745)"
       style="fill:#ffffff">
      <path
         inkscape:connector-curvature="0"
         style="fill:#ffffff;fill-opacity:1;fill-rule:nonzero;stroke:none"
         id="path2018"
         d="M 0,0 C -0.365,-3.601 -0.235,-7.671 0,-11.376 -0.809,-11.507 -1.696,-11.481 -2.505,-11.481 -2.192,-7.775 -2.113,-3.522 -2.557,0.157 -1.826,0.287 -0.913,0.157 -0.052,0.157" />
    </g>
    <g
       id="g2020"
       transform="matrix(1.25,0,0,-1.25,251.88598,805.57745)"
       style="fill:#ffffff">
      <path
         inkscape:connector-curvature="0"
         style="fill:#ffffff;fill-opacity:1;fill-rule:nonzero;stroke:none"
         id="path2022"
         d="M 0,0 C 0.26,-2.74 0.051,-5.792 -0.026,-8.506 0.521,-8.897 1.278,-8.924 1.956,-8.897 L 2.086,-8.715 C 2.347,-5.844 2.138,-2.766 2.165,0.026 2.922,0.13 3.834,0.104 4.67,0.052 4.383,-3.653 4.252,-7.436 4.409,-11.324 L 4.357,-11.428 2.217,-11.768 C 2.165,-11.585 2.217,-11.272 2.06,-11.089 1.512,-11.219 1.122,-11.872 0.521,-11.689 -0.339,-11.298 -1.227,-10.906 -1.983,-10.202 L -2.192,-9.706 C -2.218,-6.575 -2.087,-3.053 -2.531,0.052 L -2.479,0.104 -0.104,0.104" />
    </g>
    <g
       id="g2024"
       transform="matrix(1.25,0,0,-1.25,322.39973,807.3712)">
      <path
         inkscape:connector-curvature="0"
         style="fill:#ed1b2d;fill-opacity:1;fill-rule:nonzero;stroke:none"
         id="path2026"
         d="M 0,0 C 0.678,-0.809 0.965,-1.905 0.704,-2.975 0.469,-3.757 0.026,-4.514 -0.679,-5.036 -0.314,-6.393 0.183,-7.775 0.6,-9.158 L 0.469,-9.237 0.287,-9.054 C -0.183,-7.828 -0.626,-6.575 -1.148,-5.349 -1.775,-5.636 -2.453,-5.845 -3.132,-5.975 -3.34,-7.019 -3.132,-7.932 -3.184,-9.08 -3.262,-9.21 -3.471,-9.237 -3.601,-9.184 -3.601,-5.688 -3.471,-2.374 -3.601,1.07 -2.244,1.435 -0.94,0.992 0,0" />
    </g>
    <g
       id="g2028"
       transform="matrix(1.25,0,0,-1.25,326.70473,806.32745)">
      <path
         inkscape:connector-curvature="0"
         style="fill:#ed1b2d;fill-opacity:1;fill-rule:nonzero;stroke:none"
         id="path2030"
         d="M 0,0 C 0,-2.087 -0.026,-4.018 0.157,-6.001 1.644,-4.201 2.635,-2.192 3.522,-0.157 3.653,-0.13 3.758,-0.209 3.835,-0.313 3.34,-1.67 2.609,-2.974 1.853,-4.227 2.609,-5.975 3.575,-7.645 4.462,-9.367 4.54,-9.576 4.279,-9.628 4.175,-9.706 3.262,-8.088 2.583,-6.314 1.644,-4.697 1.044,-5.323 0.548,-6.027 0.105,-6.758 L 0.105,-9.732 C -0.078,-9.837 -0.417,-9.732 -0.287,-9.445 -0.261,-6.184 -0.261,-2.974 -0.392,0.183 -0.339,0.339 0.183,0.339 0,0" />
    </g>
    <g
       id="g2032"
       transform="matrix(1.25,0,0,-1.25,263.98598,807.79495)">
      <path
         inkscape:connector-curvature="0"
         style="fill:#ed1b2d;fill-opacity:1;fill-rule:nonzero;stroke:none"
         id="path2034"
         d="M 0,0 C 0.626,-0.835 0.913,-1.905 0.652,-2.975 0.417,-3.784 -0.078,-4.514 -0.783,-5.01 L 0.391,-8.898 C 0.365,-8.95 0.313,-8.976 0.235,-8.976 -0.365,-7.802 -0.704,-6.523 -1.174,-5.297 -1.8,-5.532 -2.479,-5.819 -3.209,-5.923 -3.34,-6.967 -3.209,-8.167 -3.34,-9.132 L -3.653,-9.132 -3.548,1.2 C -2.296,1.383 -0.887,1.07 0,0" />
    </g>
    <g
       id="g2036"
       transform="matrix(1.25,0,0,-1.25,2.9159763,1068.6737)">
      <g
         id="g2038"
         clip-path="url(#clipPath2040)">
        <g
           id="g2044"
           transform="translate(198.314,209.747)">
          <path
             inkscape:connector-curvature="0"
             style="fill:#ed1b2d;fill-opacity:1;fill-rule:nonzero;stroke:none"
             id="path2046"
             d="M 0,0 0.13,-8.48 C 0.705,-9.028 1.383,-9.315 2.113,-9.472 2.792,-9.158 3.418,-8.636 4.018,-8.089 4.123,-5.479 3.94,-2.531 4.044,0.13 4.123,0.183 4.227,0.157 4.331,0.157 L 4.383,-0.313 4.436,-9.706 C 4.383,-9.837 4.253,-9.837 4.149,-9.863 3.94,-9.498 4.123,-8.95 3.992,-8.558 L 2.009,-9.863 C 1.174,-9.785 0.339,-9.315 -0.183,-8.61 -0.417,-5.975 -0.261,-2.635 -0.417,0.052 -0.417,0.209 0.026,0.261 0,0" />
        </g>
      </g>
    </g>
    <g
       id="g2048"
       transform="matrix(1.25,0,0,-1.25,322.00848,807.79495)"
       style="fill:#ffffff">
      <path
         inkscape:connector-curvature="0"
         style="fill:#ffffff;fill-opacity:1;fill-rule:nonzero;stroke:none"
         id="path2050"
         d="M 0,0 C 0.704,-0.835 0.783,-2.061 0.418,-3.053 -0.105,-4.305 -1.461,-5.245 -2.739,-5.245 L -2.844,-5.166 C -2.818,-3.131 -2.922,-0.835 -2.739,1.174 -1.644,1.252 -0.705,0.809 0,0" />
    </g>
    <g
       id="g2052"
       transform="matrix(1.25,0,0,-1.25,304.78723,808.8387)">
      <path
         inkscape:connector-curvature="0"
         style="fill:#231f20;fill-opacity:1;fill-rule:nonzero;stroke:none"
         id="path2054"
         d="M 0,0 C 0.392,-1.409 0.131,-3.001 -1.095,-3.914 -1.304,-4.07 -1.513,-4.227 -1.774,-4.253 -1.931,-2.27 -1.931,-0.026 -1.774,1.983 -0.914,1.696 -0.235,0.835 0,0" />
    </g>
    <g
       id="g2056"
       transform="matrix(1.25,0,0,-1.25,313.03848,806.39245)">
      <path
         inkscape:connector-curvature="0"
         style="fill:#ed1b2d;fill-opacity:1;fill-rule:nonzero;stroke:none"
         id="path2058"
         d="M 0,0 C 0.913,-3.314 1.54,-6.758 2.009,-10.176 L 1.696,-10.176 1.226,-7.149 1.148,-7.045 -2.87,-7.071 C -3.157,-7.984 -3.236,-8.976 -3.47,-9.889 -3.47,-10.072 -3.705,-10.072 -3.835,-10.02 L -3.914,-9.863 -1.905,-0.626 C -1.852,-0.339 -1.827,0.209 -1.304,0 -0.861,0.052 -0.417,0.052 0,0" />
    </g>
    <g
       id="g2060"
       transform="matrix(1.25,0,0,-1.25,271.51973,806.7837)">
      <path
         inkscape:connector-curvature="0"
         style="fill:#ed1b2d;fill-opacity:1;fill-rule:nonzero;stroke:none"
         id="path2062"
         d="M 0,0 C 0.705,-3.262 1.409,-6.706 1.8,-10.124 1.644,-10.176 1.592,-10.15 1.435,-10.15 L 0.939,-7.019 C -0.287,-6.81 -1.8,-6.888 -3.053,-6.967 -3.392,-7.906 -3.392,-9.002 -3.783,-9.941 L -4.044,-9.889 -3.992,-9.315 -1.878,0.209 C -1.278,0.287 -0.652,0.339 -0.157,0.287" />
    </g>
    <g
       id="g2064"
       transform="matrix(1.25,0,0,-1.25,287.50098,806.88245)">
      <path
         inkscape:connector-curvature="0"
         style="fill:#ed1b2d;fill-opacity:1;fill-rule:nonzero;stroke:none"
         id="path2066"
         d="M 0,0 -0.026,-9.602 C -0.13,-9.68 -0.261,-9.732 -0.391,-9.654 -0.548,-6.314 -0.183,-3.027 -0.443,0.209 -0.365,0.417 0.157,0.339 0,0" />
    </g>
    <g
       id="g2068"
       transform="matrix(1.25,0,0,-1.25,283.29348,806.7512)">
      <path
         inkscape:connector-curvature="0"
         style="fill:#ed1b2d;fill-opacity:1;fill-rule:nonzero;stroke:none"
         id="path2070"
         d="M 0,0 0,-0.13 C -0.783,-0.939 -1.409,-1.905 -1.148,-3.079 -0.626,-4.514 0.992,-5.897 -0.026,-7.619 -0.365,-8.271 -0.757,-8.897 -1.331,-9.419 -1.461,-9.471 -1.513,-9.341 -1.618,-9.289 -1.409,-8.767 -0.861,-8.402 -0.626,-7.88 -0.183,-7.123 0.13,-5.949 -0.391,-5.14 -1.07,-4.07 -1.957,-2.922 -1.461,-1.539 -1.226,-0.913 -0.809,-0.339 -0.313,0.183 -0.183,0.183 -0.052,0.104 0,0" />
    </g>
    <g
       id="g2072"
       transform="matrix(1.25,0,0,-1.25,277.78223,806.7187)">
      <path
         inkscape:connector-curvature="0"
         style="fill:#ed1b2d;fill-opacity:1;fill-rule:nonzero;stroke:none"
         id="path2074"
         d="M 0,0 C -0.13,-0.417 -0.548,-0.757 -0.757,-1.148 -2.14,-3.209 0.444,-4.54 0.47,-6.445 0.391,-7.645 -0.313,-8.636 -1.122,-9.471 -1.226,-9.471 -1.305,-9.419 -1.383,-9.315 -0.548,-8.271 0.287,-7.149 0,-5.714 -0.6,-4.383 -1.983,-3.235 -1.409,-1.565 -1.148,-0.965 -0.835,-0.391 -0.339,0.13 -0.183,0.157 -0.104,0.078 0,0" />
    </g>
    <g
       id="g2076"
       transform="matrix(1.25,0,0,-1.25,264.05098,808.96995)"
       style="fill:#ffffff">
      <path
         inkscape:connector-curvature="0"
         style="fill:#ffffff;fill-opacity:1;fill-rule:nonzero;stroke:none"
         id="path2078"
         d="M 0,0 C 0.391,-0.965 0.261,-2.27 -0.365,-3.079 -1.148,-3.94 -2.087,-4.54 -3.236,-4.54 -3.288,-2.374 -3.262,-0.209 -3.131,1.827 -1.8,1.827 -0.522,1.305 0,0" />
    </g>
    <g
       id="g2080"
       transform="matrix(1.25,0,0,-1.25,293.82848,806.8162)">
      <path
         inkscape:connector-curvature="0"
         style="fill:#ed1b2d;fill-opacity:1;fill-rule:nonzero;stroke:none"
         id="path2082"
         d="M 0,0 0,-0.157 C -1.669,-1.566 -2.661,-3.418 -2.321,-5.61 -2.087,-7.097 -1.043,-8.245 0.079,-9.315 -0.052,-9.419 -0.13,-9.55 -0.313,-9.497 -1.983,-8.062 -2.974,-6.158 -2.661,-3.914 -2.4,-2.348 -1.565,-0.939 -0.287,0.104 -0.156,0.157 -0.078,0.078 0,0" />
    </g>
    <g
       id="g2084"
       transform="matrix(1.25,0,0,-1.25,312.71223,806.8162)"
       style="fill:#ffffff">
      <path
         inkscape:connector-curvature="0"
         style="fill:#ffffff;fill-opacity:1;fill-rule:nonzero;stroke:none"
         id="path2086"
         d="M 0,0 C 0.627,-2.009 1.018,-4.149 1.279,-6.262 -0.156,-6.288 -1.122,-6.367 -2.479,-6.262 -2.139,-4.149 -1.722,-2.061 -1.148,-0.052 -0.757,0.104 -0.443,-0.078 0,0" />
    </g>
    <g
       id="g2088"
       transform="matrix(1.25,0,0,-1.25,271.06348,806.94745)"
       style="fill:#ffffff">
      <path
         inkscape:connector-curvature="0"
         style="fill:#ffffff;fill-opacity:1;fill-rule:nonzero;stroke:none"
         id="path2090"
         d="M 0,0 C 0.626,-2.035 0.835,-4.227 1.226,-6.366 -0.052,-6.445 -1.331,-6.601 -2.583,-6.366 -2.139,-4.279 -1.826,-2.061 -1.174,-0.026 -0.783,-0.026 -0.339,0.078 0,0" />
    </g>
    <g
       id="g2092"
       transform="matrix(1.25,0,0,-1.25,321.45348,809.5562)">
      <path
         inkscape:connector-curvature="0"
         style="fill:#231f20;fill-opacity:1;fill-rule:nonzero;stroke:none"
         id="path2094"
         d="M 0,0 C 0.104,-1.044 -0.522,-2.087 -1.435,-2.505 -1.67,-2.505 -1.487,-2.192 -1.592,-2.087 -1.565,-0.965 -1.644,0.365 -1.514,1.513 -0.783,1.357 -0.209,0.678 0,0" />
    </g>
    <g
       id="g2096"
       transform="matrix(1.25,0,0,-1.25,262.51723,808.9362)">
      <path
         inkscape:connector-curvature="0"
         style="fill:#231f20;fill-opacity:1;fill-rule:nonzero;stroke:none"
         id="path2098"
         d="M 0,0 C 0.313,-0.444 0.548,-0.939 0.417,-1.514 0.156,-2.218 -0.365,-3.027 -1.122,-3.262 -1.304,-2.035 -1.174,-0.6 -1.226,0.704 -1.148,0.887 -1.017,0.757 -0.913,0.757 L -0.861,0.861 C -0.704,0.574 -0.235,0.339 0,0" />
    </g>
    <g
       id="g2100"
       transform="matrix(1.25,0,0,-1.25,313.10348,813.7312)">
      <path
         inkscape:connector-curvature="0"
         style="fill:#231f20;fill-opacity:1;fill-rule:nonzero;stroke:none"
         id="path2102"
         d="M 0,0 C -0.548,-0.104 -1.147,-0.052 -1.696,-0.026 -1.513,1.331 -1.383,2.792 -0.861,4.044 -0.339,2.792 -0.13,1.383 0,0" />
    </g>
    <g
       id="g2104"
       transform="matrix(1.25,0,0,-1.25,271.16098,812.2312)">
      <path
         inkscape:connector-curvature="0"
         style="fill:#231f20;fill-opacity:1;fill-rule:nonzero;stroke:none"
         id="path2106"
         d="M 0,0 C 0.052,-0.47 0.183,-0.913 0.13,-1.383 -0.391,-1.487 -1.017,-1.461 -1.565,-1.409 -1.409,-0.052 -1.148,1.331 -0.678,2.609 -0.287,1.826 -0.183,0.887 0,0" />
    </g>
  </g>
</svg>
